<?xml version="1.0" encoding="UTF-8" standalone="no"?>
<svg xmlns="http://www.w3.org/2000/svg" version="1.1" width="420" height="460">
<defs>
<pattern id="pnt" patternUnits="userSpaceOnUse" width="4" height="8">
<rect width="4" height="5"/>
</pattern>
</defs>
<g fill="none" stroke="#000" stroke-width="4">
<polyline points="50,50 370,50"/>
<polyline points="85,25 50,50 85,75"/>
<polyline points="335,25 370,50 335,75"/>
<polyline points="50,110 370,110"/>
<polyline points="15,85 50,110 15,135"/>
<polyline points="405,85 370,110 405,135"/>
<polyline points="50,170 370,170"/>
<polyline points="85,145 50,170 85,195"/>
<polyline points="405,145 370,170 405,195"/>
<polyline points="85,275 50,300 85,325"/>
<polyline points="335,275 370,300 335,325"/>
<polyline points="50,300 370,300" stroke="#f00"/>
<polyline points="15,335 50,360 15,385"/>
<polyline points="405,335 370,360 405,385"/>
<polyline points="50,360 370,360" stroke="#f00"/>
<polyline points="85,395 50,420 85,445"/>
<polyline points="405,395 370,420 405,445"/>
<polyline points="50,420 370,420" stroke="#f00"/>
</g>
<polyline points="50,275 50,445" stroke-width="1" stroke="url(#pnt)"/>
<polyline points="370,275 370,445" stroke-width="1" stroke="url(#pnt)"/>
</svg>
